<svg width="300" height="300" viewBox="0 0 300 300" fill="none" xmlns="http://www.w3.org/2000/svg">
<path d="M150 275C153.315 275 156.495 273.683 158.839 271.339C161.183 268.995 162.5 265.815 162.5 262.5L162.5 37.5C162.5 34.1848 161.183 31.0054 158.839 28.6612C156.495 26.317 153.315 25 150 25C146.685 25 143.505 26.317 141.161 28.6612C138.817 31.0054 137.5 34.1848 137.5 37.5L137.5 262.5C137.5 265.815 138.817 268.995 141.161 271.339C143.505 273.683 146.685 275 150 275Z" fill="black"/>
<path d="M263.75 241.875C265.158 243.045 266.92 243.706 268.75 243.75C270.408 243.75 271.997 243.092 273.169 241.919C274.342 240.747 275 239.158 275 237.5V62.5C275 60.8424 274.342 59.2527 273.169 58.0806C271.997 56.9085 270.408 56.25 268.75 56.25C266.92 56.2938 265.158 56.9545 263.75 58.125L176.875 145.625C175.73 146.793 175.088 148.364 175.088 150C175.088 151.636 175.73 153.207 176.875 154.375L263.75 241.875ZM250 107.5L250 192.5L207.5 150L250 107.5Z" fill="black"/>
<path d="M36.2495 241.875L123.125 154.375C124.27 153.207 124.911 151.636 124.911 150C124.911 148.364 124.27 146.793 123.125 145.625L36.2495 58.1249C35.3053 57.3288 34.1641 56.8017 32.9458 56.5991C31.7275 56.3965 30.4771 56.5258 29.326 56.9734C28.1749 57.421 27.1657 58.1705 26.4044 59.143C25.6431 60.1154 25.1578 61.2751 24.9995 62.4999L24.9995 237.5C25.1578 238.725 25.6431 239.884 26.4044 240.857C27.1657 241.829 28.1749 242.579 29.326 243.026C30.4771 243.474 31.7275 243.603 32.9458 243.401C34.1641 243.198 35.3053 242.671 36.2495 241.875Z" fill="black"/>
</svg>
