<svg width="300" height="300" viewBox="0 0 300 300" fill="none" xmlns="http://www.w3.org/2000/svg">
<g clip-path="url(#clip0_229_113)">
<path d="M150 25C146.685 25 143.505 26.317 141.161 28.6612C138.817 31.0054 137.5 34.1848 137.5 37.5V262.5C137.5 265.815 138.817 268.995 141.161 271.339C143.505 273.683 146.685 275 150 275C153.315 275 156.495 273.683 158.839 271.339C161.183 268.995 162.5 265.815 162.5 262.5V37.5C162.5 34.1848 161.183 31.0054 158.839 28.6612C156.495 26.317 153.315 25 150 25Z" fill="black"/>
<path d="M36.25 58.125C34.8422 56.9545 33.0803 56.2938 31.25 56.25C29.5924 56.25 28.0027 56.9085 26.8306 58.0806C25.6585 59.2527 25 60.8424 25 62.5V237.5C25 239.158 25.6585 240.747 26.8306 241.919C28.0027 243.092 29.5924 243.75 31.25 243.75C33.0803 243.706 34.8422 243.045 36.25 241.875L123.125 154.375C124.27 153.207 124.912 151.636 124.912 150C124.912 148.364 124.27 146.793 123.125 145.625L36.25 58.125ZM50 192.5V107.5L92.5 150L50 192.5Z" fill="black"/>
<path d="M263.75 58.1251L176.875 145.625C175.73 146.793 175.089 148.364 175.089 150C175.089 151.636 175.73 153.207 176.875 154.375L263.75 241.875C264.695 242.671 265.836 243.198 267.054 243.401C268.273 243.604 269.523 243.474 270.674 243.027C271.825 242.579 272.834 241.83 273.596 240.857C274.357 239.885 274.842 238.725 275 237.5V62.5001C274.842 61.2752 274.357 60.1156 273.596 59.1431C272.834 58.1707 271.825 57.4212 270.674 56.9736C269.523 56.5259 268.273 56.3966 267.054 56.5993C265.836 56.8019 264.695 57.329 263.75 58.1251Z" fill="black"/>
</g>
<defs>
<clipPath id="clip0_229_113">
<rect width="300" height="300" fill="white"/>
</clipPath>
</defs>
</svg>
